<svg xmlns="http://www.w3.org/2000/svg" width="96.27" height="28.4" viewBox="0 0 96.27 28.4">
  <g id="logo_color_black" transform="translate(-451.865 526.902)">
    <g id="logotype">
      <path id="y" d="M548.1-517.934a.337.337,0,0,0-.306-.477h-2.517a.673.673,0,0,0-.61.391L541.8-511.8a.086.086,0,0,1-.157,0l-2.834-6.222a.672.672,0,0,0-.612-.394h-2.616a.337.337,0,0,0-.306.476l4.587,10.073a.334.334,0,0,1,0,.28l-2.719,5.9a.336.336,0,0,0,.3.477h2.512a.671.671,0,0,0,.611-.391Z" fill="#212121"></path>
      <path id="c" d="M531.572-511a.665.665,0,0,0-.817.2,3.2,3.2,0,0,1-2.6,1.291,3.077,3.077,0,0,1-3.166-3.051,3.076,3.076,0,0,1,3.166-3.051,3.2,3.2,0,0,1,2.585,1.269.666.666,0,0,0,.814.2l1.981-.914a.337.337,0,0,0,.152-.473,6.332,6.332,0,0,0-5.532-3.105,6.126,6.126,0,0,0-6.3,6.077,6.126,6.126,0,0,0,6.3,6.077,6.333,6.333,0,0,0,5.549-3.135.338.338,0,0,0-.153-.471Z" fill="#212121"></path>
      <g id="i">
        <rect id="line" width="3.369" height="11.722" rx="0.504" transform="translate(515.888 -518.411)" fill="#212121"></rect>
        <circle id="dot" cx="1.914" cy="1.914" r="1.914" transform="translate(515.658 -523.923)" fill="#ff7d32"></circle>
      </g>
      <path id="o" d="M506.991-518.64a6.127,6.127,0,0,0-6.306,6.077,6.127,6.127,0,0,0,6.306,6.077,6.126,6.126,0,0,0,6.305-6.077A6.126,6.126,0,0,0,506.991-518.64Zm0,9.128a3.077,3.077,0,0,1-3.166-3.051,3.076,3.076,0,0,1,3.166-3.051,3.075,3.075,0,0,1,3.165,3.051A3.076,3.076,0,0,1,506.991-509.512Z" fill="#212121"></path>
      <path id="v" d="M499.343-518.411h-2.517a.674.674,0,0,0-.611.391l-2.871,6.225a.086.086,0,0,1-.157,0l-2.833-6.222a.674.674,0,0,0-.612-.394h-2.616a.336.336,0,0,0-.306.476l4.942,10.852a.672.672,0,0,0,.612.394h1.658a.674.674,0,0,0,.611-.391l5.005-10.854A.336.336,0,0,0,499.343-518.411Z" fill="#212121"></path>
    </g>
    <g id="symbol">
      <path id="symbol-2" data-name="symbol" d="M478.928-526.867c-3.208,1.068-9.183,5.064-12.441,15.021-3.258-9.957-9.233-13.953-12.441-15.021a.669.669,0,0,0-.821.349c-.878,1.878-3.358,8.782,1.873,18.51,3.214,5.979,9.114,8.7,10.878,9.408a1.378,1.378,0,0,0,1.022,0c1.765-.7,7.664-3.429,10.879-9.408,5.231-9.728,2.75-16.632,1.873-18.51A.671.671,0,0,0,478.928-526.867Zm-14.143,23.906a17.632,17.632,0,0,1-6.7-6.652,20.53,20.53,0,0,1-2.772-11.47c.039-.452.1-.871.164-1.257a15.569,15.569,0,0,1,1.986,1.652,24.033,24.033,0,0,1,5.808,9.9l0,.01,0,.011A23.01,23.01,0,0,1,464.785-502.961Zm10.107-6.652a17.625,17.625,0,0,1-6.7,6.652,23.037,23.037,0,0,1,1.51-7.806l0-.011,0-.01a24.034,24.034,0,0,1,5.809-9.9,15.567,15.567,0,0,1,1.985-1.652c.068.386.125.805.164,1.257A20.522,20.522,0,0,1,474.892-509.613Z" fill="#ff7d32"></path>
    </g>
  </g>
</svg>